<svg id="SvgjsSvg1001" width="288" height="288" xmlns="http://www.w3.org/2000/svg" version="1.1" xmlns:xlink="http://www.w3.org/1999/xlink" xmlns:svgjs="http://svgjs.com/svgjs"><defs id="SvgjsDefs1002"></defs><g id="SvgjsG1008" transform="matrix(0.916700005531311,0,0,0.916700005531311,11.81818675994873,11.996012687683105)"><svg xmlns="http://www.w3.org/2000/svg" viewBox="0 0 24 24" width="288" height="288"><path d="M16.71,16.29h0l-13-13A1,1,0,0,0,2.29,4.71L5.65,8.06a7,7,0,0,0-.59,2A4,4,0,0,0,6,18h9.59l2.7,2.71a1,1,0,0,0,1.42,0,1,1,0,0,0,0-1.42ZM6,16a2,2,0,0,1,0-4,1,1,0,0,0,1-1,5,5,0,0,1,.2-1.39L13.59,16ZM18.42,8.22A7,7,0,0,0,12,4a6.74,6.74,0,0,0-2.32.4,1,1,0,0,0,.66,1.88A4.91,4.91,0,0,1,12,6a5,5,0,0,1,4.73,3.39,1,1,0,0,0,.78.67,3,3,0,0,1,1.85,4.79,1,1,0,0,0,.16,1.4,1,1,0,0,0,.62.22,1,1,0,0,0,.78-.38,5,5,0,0,0-2.5-7.87Z" fill="#ffffff" class="color000 svgShape"></path></svg></g></svg>